C:\Users\r0593348\3dpredictsim\Results\batch_windlass\Pog_s1_tmt_bCst_d00_k500_WL40_ig24_act_TTC_GRF.mot
nRows=20
nColumns=19

name C:\Users\r0593348\3dpredictsim\Results\batch_windlass\Pog_s1_tmt_bCst_d00_k500_WL40_ig24_act_TTC_GRF.mot
datacolumns 19
datarows 20
range 0.6075471164 0.8384150207
endheader
time 	ground_force_vx	ground_force_vy	ground_force_vz	ground_force_px	ground_force_py	ground_force_pz	1_ground_force_vx	1_ground_force_vy	1_ground_force_vz	1_ground_force_px	1_ground_force_py	1_ground_force_pz	ground_torque_x	ground_torque_y	ground_torque_z	1_ground_torque_x	1_ground_torque_y	1_ground_torque_z
        0.6075471164	       38.3464580529	      260.7857816186	       11.7373443872	        0.4029567941	        0.0000000000	        0.0138341748	      -60.8222336586	       49.0476648278	      -19.6861895404	        0.9231960078	        0.0000000000	       -0.0557349231	        0.0000000000	        0.0000000000	        0.0000000000	        0.0000000000	        0.0000000000	        0.0000000000	
        0.6196980587	       26.4165805220	      219.0007894364	       16.8181979100	        0.4065114258	        0.0000000000	        0.0114553333	     -133.9888670079	      147.7706694474	      -66.2279505238	        0.9311338159	        0.0000000000	       -0.0536069810	        0.0000000000	        0.0000000000	        0.0000000000	        0.0000000000	        0.0000000000	        0.0000000000	
        0.6318490011	       22.9809382114	      179.4677874523	       14.7185285792	        0.4065904236	        0.0000000000	        0.0114326060	      -73.4087194837	      357.9566357347	      -16.8802026805	        0.9377163355	        0.0000000000	       -0.0514886599	        0.0000000000	        0.0000000000	        0.0000000000	        0.0000000000	        0.0000000000	        0.0000000000	
        0.6439999434	       11.8733409327	      122.6532868451	       10.1225753090	        0.4064714505	        0.0000000000	        0.0112333530	      -69.9695831231	      636.3457545171	       14.9903193937	        0.9469606025	        0.0000000000	       -0.0525123698	        0.0000000000	        0.0000000000	        0.0000000000	        0.0000000000	        0.0000000000	        0.0000000000	
        0.6561508857	      -12.7641410445	       58.1129095914	        6.7025358390	        0.4039757929	        0.0000000000	        0.0113186740	     -111.4684041215	      870.3158842603	       28.7256156755	        0.9565587296	        0.0000000000	       -0.0542141607	        0.0000000000	        0.0000000000	        0.0000000000	        0.0000000000	        0.0000000000	        0.0000000000	
        0.6683018281	      -14.6503324295	       13.8942834187	       -1.3043810701	        0.4014071308	        0.0000000000	        0.0095963262	     -137.9711306120	      948.6947852828	       31.8335687490	        0.9634615978	        0.0000000000	       -0.0553516337	        0.0000000000	        0.0000000000	        0.0000000000	        0.0000000000	        0.0000000000	        0.0000000000	
        0.6804527704	       -7.7294935392	        6.2132885217	       -1.0020643050	        0.0000000000	        0.0000000000	        0.0000000000	     -142.3831120520	      943.6388465004	       28.2161309900	        0.9690934117	        0.0000000000	       -0.0559925862	        0.0000000000	        0.0000000000	        0.0000000000	        0.0000000000	        0.0000000000	        0.0000000000	
        0.6926037127	       -7.6973166856	        5.3064077998	       -0.9570341713	        0.0000000000	        0.0000000000	        0.0000000000	     -135.6311662832	      904.6052402480	       23.1961469446	        0.9744646128	        0.0000000000	       -0.0559003461	        0.0000000000	        0.0000000000	        0.0000000000	        0.0000000000	        0.0000000000	        0.0000000000	
        0.7047546550	       -1.5212303287	        0.9658661301	       -0.1759583792	        0.0000000000	        0.0000000000	        0.0000000000	     -120.7619789202	      859.4061945766	       21.7081518541	        0.9808089343	        0.0000000000	       -0.0552971668	        0.0000000000	        0.0000000000	        0.0000000000	        0.0000000000	        0.0000000000	        0.0000000000	
        0.7169055974	       -1.3171890719	        0.7684280452	       -0.1361296578	        0.0000000000	        0.0000000000	        0.0000000000	     -104.7963351157	      802.5817065224	       21.3061796690	        0.9867463564	        0.0000000000	       -0.0546412379	        0.0000000000	        0.0000000000	        0.0000000000	        0.0000000000	        0.0000000000	        0.0000000000	
        0.7290565397	       -0.7272347306	        0.4032973400	       -0.0707287615	        0.0000000000	        0.0000000000	        0.0000000000	      -90.2352978455	      747.8741360100	       21.3710272211	        0.9916941487	        0.0000000000	       -0.0540843837	        0.0000000000	        0.0000000000	        0.0000000000	        0.0000000000	        0.0000000000	        0.0000000000	
        0.7412074820	       -0.5341788865	        0.2877777521	       -0.0484651766	        0.0000000000	        0.0000000000	        0.0000000000	      -77.5229595549	      702.2728239678	       21.6421625017	        0.9961214280	        0.0000000000	       -0.0536589964	        0.0000000000	        0.0000000000	        0.0000000000	        0.0000000000	        0.0000000000	        0.0000000000	
        0.7533584244	       -0.2975139314	        0.1552889473	       -0.0261196875	        0.0000000000	        0.0000000000	        0.0000000000	      -66.8900546845	      667.4131105406	       22.0557816330	        1.0003009821	        0.0000000000	       -0.0533252022	        0.0000000000	        0.0000000000	        0.0000000000	        0.0000000000	        0.0000000000	        0.0000000000	
        0.7655093667	       -0.1739866507	        0.0875778811	       -0.0152597730	        0.0000000000	        0.0000000000	        0.0000000000	      -57.4200562112	      642.2367265997	       22.6702984137	        1.0044270689	        0.0000000000	       -0.0530401226	        0.0000000000	        0.0000000000	        0.0000000000	        0.0000000000	        0.0000000000	        0.0000000000	
        0.7776603090	       -0.1190582611	        0.0577558639	       -0.0105980435	        0.0000000000	        0.0000000000	        0.0000000000	      -48.9531652244	      623.3435045773	       22.8706022370	        1.0085409892	        0.0000000000	       -0.0527809434	        0.0000000000	        0.0000000000	        0.0000000000	        0.0000000000	        0.0000000000	        0.0000000000	
        0.7898112513	       -0.0972523067	        0.0456239254	       -0.0087607471	        0.0000000000	        0.0000000000	        0.0000000000	      -40.9666620509	      608.7812471087	       22.9903984864	        1.0129521675	        0.0000000000	       -0.0524895843	        0.0000000000	        0.0000000000	        0.0000000000	        0.0000000000	        0.0000000000	        0.0000000000	
        0.8019621937	       -0.0938328682	        0.0427989340	       -0.0084987627	        0.0000000000	        0.0000000000	        0.0000000000	      -34.5564565669	      597.9763217838	       22.9845954517	        1.0178683188	        0.0000000000	       -0.0521026959	        0.0000000000	        0.0000000000	        0.0000000000	        0.0000000000	        0.0000000000	        0.0000000000	
        0.8141131360	       -0.1055696429	        0.0470443538	       -0.0095132804	        0.0000000000	        0.0000000000	        0.0000000000	      -29.2726565911	      590.4534603636	       22.5140304776	        1.0231803266	        0.0000000000	       -0.0516091557	        0.0000000000	        0.0000000000	        0.0000000000	        0.0000000000	        0.0000000000	        0.0000000000	
        0.8262640783	       -0.1353666887	        0.0591307455	       -0.0119618303	        0.0000000000	        0.0000000000	        0.0000000000	      -24.8636803691	      585.3233033033	       21.8059994319	        1.0286705347	        0.0000000000	       -0.0510232120	        0.0000000000	        0.0000000000	        0.0000000000	        0.0000000000	        0.0000000000	        0.0000000000	
        0.8384150207	       -0.1902114225	        0.0815969569	       -0.0162422953	        0.0000000000	        0.0000000000	        0.0000000000	      -20.7121904527	      581.7538136984	       21.0290857456	        1.0342187373	        0.0000000000	       -0.0503648218	        0.0000000000	        0.0000000000	        0.0000000000	        0.0000000000	        0.0000000000	        0.0000000000	
